# xmcd
#
# Track frame offsets:
#	150
#	4438
#	20660
#	43485
#	74715
#	103990
#	120125
#	149966
#	168243
#	199916
#	224222
#
# Disc length: 3378 seconds
#
# Revision: 0
# Processed by: cddbd v1.5.2PL0 Copyright (c) Steve Scherf et al.
# Submitted via: audiograbber 1.83.01
#
DISCID=bb0d300b
DTITLE=Test - Test
DYEAR=1900
DGENRE=
TTITLE0=g
TTITLE1=d
TTITLE2=c
TTITLE3=e
TTITLE4=f
TTITLE5=g
TTITLE6=t
TTITLE7=z
TTITLE8=u
TTITLE9=q
TTITLE10=e
EXTD=
EXTT0=
EXTT1=
EXTT2=
EXTT3=
EXTT4=
EXTT5=
EXTT6=
EXTT7=
EXTT8=
EXTT9=
EXTT10=
PLAYORDER=
